<?xml version="1.0" encoding="UTF-8" standalone="no"?>
<!-- Generator: Adobe Illustrator 19.0.0, SVG Export Plug-In . SVG Version: 6.00 Build 0)  -->

<svg
   version="1.1"
   id="Capa_1"
   x="0px"
   y="0px"
   viewBox="0 0 512 512"
   style="enable-background:new 0 0 512 512;"
   xml:space="preserve"
   xmlns="http://www.w3.org/2000/svg"
   xmlns:svg="http://www.w3.org/2000/svg"><defs
   id="defs65" />
<g
   id="g6"
   style="fill:#ffffff">
	<g
   id="g4"
   style="fill:#ffffff">
		<path
   d="M331.324,0c-99.591,0-180.613,81.022-180.613,180.613c0,32.918,8.857,63.804,24.306,90.409L13.718,432.321    c-18.204,18.203-18.204,47.823,0,66.026C22.819,507.449,34.775,512,46.73,512c11.955,0,23.912-4.55,33.012-13.653l161.332-161.333    c26.569,15.391,57.397,24.211,90.248,24.211c99.591,0,180.613-81.023,180.613-180.613S430.915,0,331.324,0z M58.51,477.114    c-6.496,6.496-17.064,6.496-23.559,0.001c-6.495-6.495-6.495-17.064,0-23.56l10.125-10.125l23.559,23.559L58.51,477.114z     M89.868,445.757l-23.559-23.559l16.263-16.263l23.559,23.56L89.868,445.757z M127.363,408.261l-23.559-23.56l88.69-88.69    c7.12,8.551,15.012,16.438,23.57,23.549L127.363,408.261z M331.324,331.197c-83.033,0-150.584-67.552-150.584-150.584    S248.291,30.029,331.324,30.029S481.908,97.58,481.908,180.613S414.357,331.197,331.324,331.197z"
   id="path2"
   style="fill:#ffffff" />
	</g>
</g>
<g
   id="g12"
   style="fill:#ffffff">
	<g
   id="g10"
   style="fill:#ffffff">
		<path
   d="M410.908,163.716c-8.292,0-15.014,6.722-15.014,15.014v65.244c0,8.292,6.722,15.014,15.014,15.014    s15.014-6.722,15.014-15.014V178.73C425.922,170.437,419.199,163.716,410.908,163.716z"
   id="path8"
   style="fill:#ffffff" />
	</g>
</g>
<g
   id="g18"
   style="fill:#ffffff">
	<g
   id="g16"
   style="fill:#ffffff">
		<path
   d="M361.226,96.676c-8.292,0-15.014,6.722-15.014,15.014v132.283c0,8.292,6.722,15.014,15.014,15.014    s15.014-6.722,15.014-15.014V111.69C376.241,103.398,369.518,96.676,361.226,96.676z"
   id="path14"
   style="fill:#ffffff" />
	</g>
</g>
<g
   id="g24">
	<g
   id="g22">
		<path
   d="M310.847,130.196c-8.292,0-15.014,6.722-15.014,15.014v99.661c0,8.292,6.722,15.014,15.014,15.014    s15.014-6.722,15.014-15.014V145.21C325.862,136.918,319.139,130.196,310.847,130.196z"
   id="path20"
   style="fill:#ffffff" />
	</g>
</g>
<g
   id="g30"
   style="fill:#ffffff">
	<g
   id="g28"
   style="fill:#ffffff">
		<path
   d="M258.327,97.574c-8.292,0-15.014,6.722-15.014,15.014v132.283c0,8.292,6.722,15.014,15.014,15.014    s15.014-6.722,15.014-15.014V112.588C273.342,104.296,266.619,97.574,258.327,97.574z"
   id="path26"
   style="fill:#ffffff" />
	</g>
</g>
<g
   id="g32">
</g>
<g
   id="g34">
</g>
<g
   id="g36">
</g>
<g
   id="g38">
</g>
<g
   id="g40">
</g>
<g
   id="g42">
</g>
<g
   id="g44">
</g>
<g
   id="g46">
</g>
<g
   id="g48">
</g>
<g
   id="g50">
</g>
<g
   id="g52">
</g>
<g
   id="g54">
</g>
<g
   id="g56">
</g>
<g
   id="g58">
</g>
<g
   id="g60">
</g>
</svg>
