<?xml version="1.0" encoding="UTF-8" standalone="no"?>
<svg
   height="512pt"
   viewBox="0 -11 512.001 512"
   width="512pt"
   version="1.1"
   id="svg4"
   xmlns="http://www.w3.org/2000/svg"
   xmlns:svg="http://www.w3.org/2000/svg">
  <defs
     id="defs8" />
  <path
     d="m466.429688 15.203125c-26.492188-8.546875-62.488282-13.945313-101.363282-15.19921875-4.175781-.14843725-7.605468 3.11718775-7.738281 7.25781275s3.113281 7.605469 7.257813 7.738281c85.257812 2.746094 132.414062 24.167969 132.414062 37.929688 0 15.683593-57.449219 38.207031-149.675781 38.207031-85.6875 0-144.363281-19.746094-149.386719-36.378907-.195312-.644531-.289062-1.253906-.289062-1.828124 0-13.761719 47.15625-35.183594 132.414062-37.929688 4.144531-.136719 7.390625-3.601562 7.257812-7.738281-.136718-4.140625-3.558593-7.410157-7.738281-7.25781275-38.875 1.25390575-74.871093 6.65234375-101.363281 15.19921875-29.8125 9.621094-45.570312 22.667969-45.570312 37.726563v53.742187c-85.882813-2.789063-182.6406255 15.320313-182.648438 52.914063v277.910156c0 70.386718 329.351562 70.941406 329.351562 0v-53.75c77.652344 2.570312 149.78125-11.480469 173.519532-34.121094 6.058594-5.777344 9.128906-12.097656 9.128906-18.789062v-104.554688c0-4.144531-3.355469-7.5-7.5-7.5s-7.5 3.355469-7.5 7.5v11.917969c0 2.425781-1.507812 5.09375-4.480469 7.929687-17.257812 16.460938-66.390625 24.644532-90.230469 27.324219-23.855468 2.683594-49.042968 3.480469-72.9375 2.652344 0-2.144531 0-73.960938 0-77.625 47.167969 1.558593 130.800782-3.550781 167.648438-29.363281v22.160156c0 4.144531 3.355469 7.503906 7.5 7.503906s7.5-3.359375 7.5-7.503906c0-7.789063 0-132.386719 0-138.347656 0-15.058594-15.757812-28.105469-45.570312-37.726563zm-268.78125 61.242187c55.953124 39.535157 243.457031 39.492188 299.351562 0v69.117188c0 2.429688-1.507812 5.101562-4.484375 7.9375-12.183594 11.621094-41.722656 19.128906-58.214844 22.40625-33.253906 6.640625-70.773437 8.738281-104.949219 7.5625v-23.878906c0-38.164063-93.730468-49.902344-131.703124-52.21875zm116.703124 106.660157v69.117187c0 6.136719-10.640624 16.398438-40.628906 25.121094-60.101562 17.476562-158.027344 17.464844-218.09375 0-29.988281-8.722656-40.628906-18.984375-40.628906-25.121094v-69.117187c56.292969 39.777343 244.285156 38.910156 299.351562 0zm-299.351562 92.636719c56.171875 39.707031 243.804688 39.261718 299.351562 0v69.117187c0 6.136719-10.640624 16.398437-40.628906 25.121094-60.101562 17.476562-158.027344 17.464843-218.09375 0-29.988281-8.722657-40.628906-18.984375-40.628906-25.121094zm40.628906-141.273438c60.273438-17.527344 158.265625-17.398438 218.09375 0 29.988282 8.71875 40.628906 18.980469 40.628906 25.121094 0 15.683594-57.449218 38.207031-149.675781 38.207031-92.808593 0-149.671875-22.714844-149.675781-38.207031 0-6.140625 10.640625-16.398438 40.628906-25.121094zm258.722656 303.027344c0 6.136718-10.640624 16.394531-40.628906 25.117187-60.101562 17.480469-158.027344 17.46875-218.09375 0-29.988281-8.71875-40.628906-18.980469-40.628906-25.117187v-69.117188c54.835938 38.746094 242.539062 40.140625 299.351562 0zm182.648438-106.660156c0 2.429687-1.507812 5.097656-4.480469 7.933593-18.003906 17.171875-83.382812 32.695313-163.167969 29.972657 0-2.144532 0-73.960938 0-77.625 71.300782 2.359374 139.070313-9.347657 167.648438-29.367188zm0 0"
     id="path2"
     style="fill:#ffffff" />
</svg>
