<?xml version="1.0" encoding="UTF-8" standalone="no"?>
<svg
   id="Capa_1"
   enable-background="new 0 0 511.883 511.883"
   height="512"
   viewBox="0 0 511.883 511.883"
   width="512"
   version="1.1"
   xmlns="http://www.w3.org/2000/svg"
   xmlns:svg="http://www.w3.org/2000/svg">
  <defs
     id="defs11" />
  <g
     id="g6"
     style="fill:#ffffff">
    <path
       d="m436.919 74.964c-48.341-48.342-112.613-74.964-180.978-74.964s-132.636 26.622-180.977 74.964c-48.342 48.341-74.964 112.613-74.964 180.977s26.622 132.637 74.964 180.978c48.341 48.342 112.613 74.964 180.978 74.964s132.637-26.622 180.978-74.964c48.342-48.341 74.964-112.613 74.964-180.978s-26.623-132.636-74.965-180.977zm-21.213 340.742c-42.675 42.675-99.413 66.177-159.765 66.177s-117.09-23.502-159.765-66.177-66.176-99.413-66.176-159.765 23.502-117.09 66.177-159.765 99.413-66.176 159.764-66.176 117.09 23.502 159.765 66.177 66.177 99.413 66.177 159.765-23.502 117.089-66.177 159.764z"
       id="path2"
       style="fill:#ffffff" />
    <path
       d="m345.324 102.919-89.383 89.383-89.383-89.383-63.64 63.64 89.383 89.383-89.383 89.383 63.64 63.64 89.383-89.383 89.383 89.383 63.64-63.64-89.383-89.383 89.383-89.383zm21.214 242.405-21.214 21.214-89.383-89.383-89.383 89.383-21.214-21.214 89.383-89.383-89.383-89.383 21.214-21.214 89.383 89.383 89.383-89.383 21.214 21.214-89.383 89.383z"
       id="path4"
       style="fill:#ffffff" />
  </g>
</svg>
